name Walk5.mot
datacolumns 19
datarows 20
range 1.40400000 1.42300000
endheader

                time	   L_ground_force_vx	   L_ground_force_vy	   L_ground_force_vz	   L_ground_force_px	   L_ground_force_py	   L_ground_force_pz	   R_ground_force_vx	   R_ground_force_vy	   R_ground_force_vz	   R_ground_force_px	   R_ground_force_py	   R_ground_force_pz	   L_ground_torque_x	   L_ground_torque_y	   L_ground_torque_z	   R_ground_torque_x	   R_ground_torque_y	   R_ground_torque_z	
          1.40400000	         41.20915198	        939.05808649	         82.19749810	         -0.17622831	          0.00000000	         -0.05670106	          0.00000000	          0.00000000	          0.00000000	          0.00000000	          0.00000000	          0.00000000	          0.00000000	         -1.65450535	          0.00000000	          0.00000000	          0.00000000	          0.00000000	
          1.40500000	         41.99504707	        940.26188174	         82.39259213	         -0.17602694	          0.00000000	         -0.05669092	          0.00000000	          0.00000000	          0.00000000	          0.00000000	          0.00000000	          0.00000000	          0.00000000	         -1.68603114	          0.00000000	          0.00000000	          0.00000000	          0.00000000	
          1.40600000	         42.83454153	        941.52857167	         82.55493393	         -0.17577998	          0.00000000	         -0.05662048	          0.00000000	          0.00000000	          0.00000000	          0.00000000	          0.00000000	          0.00000000	          0.00000000	         -1.72052119	          0.00000000	          0.00000000	          0.00000000	          0.00000000	
          1.40700000	         43.68440170	        942.91605681	         82.67614524	         -0.17550578	          0.00000000	         -0.05653038	          0.00000000	          0.00000000	          0.00000000	          0.00000000	          0.00000000	          0.00000000	          0.00000000	         -1.74456516	          0.00000000	          0.00000000	          0.00000000	          0.00000000	
          1.40800000	         44.49302991	        944.40463785	         82.76717965	         -0.17523035	          0.00000000	         -0.05646435	          0.00000000	          0.00000000	          0.00000000	          0.00000000	          0.00000000	          0.00000000	          0.00000000	         -1.75233490	          0.00000000	          0.00000000	          0.00000000	          0.00000000	
          1.40900000	         45.23193730	        945.94512258	         82.85616262	         -0.17497623	          0.00000000	         -0.05645051	          0.00000000	          0.00000000	          0.00000000	          0.00000000	          0.00000000	          0.00000000	          0.00000000	         -1.74961884	          0.00000000	          0.00000000	          0.00000000	          0.00000000	
          1.41000000	         45.91340984	        947.51523083	         82.96088579	         -0.17475149	          0.00000000	         -0.05649000	          0.00000000	          0.00000000	          0.00000000	          0.00000000	          0.00000000	          0.00000000	          0.00000000	         -1.74844603	          0.00000000	          0.00000000	          0.00000000	          0.00000000	
          1.41100000	         46.56519283	        949.14007074	         83.08096337	         -0.17455696	          0.00000000	         -0.05655501	          0.00000000	          0.00000000	          0.00000000	          0.00000000	          0.00000000	          0.00000000	          0.00000000	         -1.75586235	          0.00000000	          0.00000000	          0.00000000	          0.00000000	
          1.41200000	         47.20532780	        950.86225373	         83.22559396	         -0.17439843	          0.00000000	         -0.05660949	          0.00000000	          0.00000000	          0.00000000	          0.00000000	          0.00000000	          0.00000000	          0.00000000	         -1.77179689	          0.00000000	          0.00000000	          0.00000000	          0.00000000	
          1.41300000	         47.85753621	        952.66944117	         83.42610780	         -0.17427236	          0.00000000	         -0.05663674	          0.00000000	          0.00000000	          0.00000000	          0.00000000	          0.00000000	          0.00000000	          0.00000000	         -1.79561046	          0.00000000	          0.00000000	          0.00000000	          0.00000000	
          1.41400000	         48.56044956	        954.46621304	         83.69603500	         -0.17415200	          0.00000000	         -0.05665104	          0.00000000	          0.00000000	          0.00000000	          0.00000000	          0.00000000	          0.00000000	          0.00000000	         -1.82781126	          0.00000000	          0.00000000	          0.00000000	          0.00000000	
          1.41500000	         49.33440710	        956.15679023	         83.98916703	         -0.17400513	          0.00000000	         -0.05668933	          0.00000000	          0.00000000	          0.00000000	          0.00000000	          0.00000000	          0.00000000	          0.00000000	         -1.86548203	          0.00000000	          0.00000000	          0.00000000	          0.00000000	
          1.41600000	         50.15135085	        957.74095686	         84.22913437	         -0.17381861	          0.00000000	         -0.05678070	          0.00000000	          0.00000000	          0.00000000	          0.00000000	          0.00000000	          0.00000000	          0.00000000	         -1.90063827	          0.00000000	          0.00000000	          0.00000000	          0.00000000	
          1.41700000	         50.95720817	        959.29828146	         84.37881481	         -0.17360261	          0.00000000	         -0.05691389	          0.00000000	          0.00000000	          0.00000000	          0.00000000	          0.00000000	          0.00000000	          0.00000000	         -1.92607981	          0.00000000	          0.00000000	          0.00000000	          0.00000000	
          1.41800000	         51.71709484	        960.90302222	         84.45914406	         -0.17337827	          0.00000000	         -0.05704617	          0.00000000	          0.00000000	          0.00000000	          0.00000000	          0.00000000	          0.00000000	          0.00000000	         -1.94084758	          0.00000000	          0.00000000	          0.00000000	          0.00000000	
          1.41900000	         52.42768697	        962.57037796	         84.51369533	         -0.17316249	          0.00000000	         -0.05714561	          0.00000000	          0.00000000	          0.00000000	          0.00000000	          0.00000000	          0.00000000	          0.00000000	         -1.94793244	          0.00000000	          0.00000000	          0.00000000	          0.00000000	
          1.42000000	         53.10544938	        964.26494469	         84.57542015	         -0.17295991	          0.00000000	         -0.05720979	          0.00000000	          0.00000000	          0.00000000	          0.00000000	          0.00000000	          0.00000000	          0.00000000	         -1.95202618	          0.00000000	          0.00000000	          0.00000000	          0.00000000	
          1.42100000	         53.77773268	        965.95313573	         84.65591577	         -0.17276732	          0.00000000	         -0.05725177	          0.00000000	          0.00000000	          0.00000000	          0.00000000	          0.00000000	          0.00000000	          0.00000000	         -1.95962964	          0.00000000	          0.00000000	          0.00000000	          0.00000000	
          1.42200000	         54.46827305	        967.63756988	         84.75414840	         -0.17258152	          0.00000000	         -0.05728742	          0.00000000	          0.00000000	          0.00000000	          0.00000000	          0.00000000	          0.00000000	          0.00000000	         -1.97272003	          0.00000000	          0.00000000	          0.00000000	          0.00000000	
          1.42300000	         55.18488377	        969.34756141	         84.87508965	         -0.17240001	          0.00000000	         -0.05732800	          0.00000000	          0.00000000	          0.00000000	          0.00000000	          0.00000000	          0.00000000	          0.00000000	         -1.98654279	          0.00000000	          0.00000000	          0.00000000	          0.00000000	
